<mxfile host="app.diagrams.net" agent="Mozilla/5.0 (Windows NT 10.0; Win64; x64) AppleWebKit/537.36 (KHTML, like Gecko) Chrome/130.0.0.0 Safari/537.36" version="24.8.2">
  <diagram name="Trang-1" id="1ht-uM3YxtHQ0jcqTlDF">
    <mxGraphModel dx="1105" dy="586" grid="1" gridSize="10" guides="1" tooltips="1" connect="1" arrows="1" fold="1" page="1" pageScale="1" pageWidth="827" pageHeight="1169" math="0" shadow="0">
      <root>
        <mxCell id="0" />
        <mxCell id="1" parent="0" />
        <mxCell id="6kVD8WvadaQAHH-k1Uph-1" value="&lt;div&gt;&lt;br&gt;&lt;/div&gt;&lt;div&gt;&lt;br&gt;&lt;/div&gt;&lt;div&gt;&lt;br&gt;&lt;/div&gt;&lt;div&gt;&lt;br&gt;&lt;/div&gt;&lt;div&gt;&lt;span style=&quot;background-color: initial;&quot;&gt;&lt;br&gt;&lt;/span&gt;&lt;/div&gt;&lt;div&gt;&lt;span style=&quot;background-color: initial;&quot;&gt;admin&lt;/span&gt;&lt;/div&gt;&lt;div&gt;&lt;br&gt;&lt;/div&gt;" style="shape=umlLifeline;perimeter=lifelinePerimeter;whiteSpace=wrap;html=1;container=1;dropTarget=0;collapsible=0;recursiveResize=0;outlineConnect=0;portConstraint=eastwest;newEdgeStyle={&quot;curved&quot;:0,&quot;rounded&quot;:0};participant=umlActor;size=40;" vertex="1" parent="1">
          <mxGeometry x="120" y="80" width="20" height="630" as="geometry" />
        </mxCell>
        <mxCell id="6kVD8WvadaQAHH-k1Uph-2" value=":Client" style="shape=umlLifeline;perimeter=lifelinePerimeter;whiteSpace=wrap;html=1;container=1;dropTarget=0;collapsible=0;recursiveResize=0;outlineConnect=0;portConstraint=eastwest;newEdgeStyle={&quot;curved&quot;:0,&quot;rounded&quot;:0};" vertex="1" parent="1">
          <mxGeometry x="219" y="80" width="100" height="630" as="geometry" />
        </mxCell>
        <mxCell id="6kVD8WvadaQAHH-k1Uph-38" value="" style="html=1;points=[[0,0,0,0,5],[0,1,0,0,-5],[1,0,0,0,5],[1,1,0,0,-5]];perimeter=orthogonalPerimeter;outlineConnect=0;targetShapes=umlLifeline;portConstraint=eastwest;newEdgeStyle={&quot;curved&quot;:0,&quot;rounded&quot;:0};" vertex="1" parent="6kVD8WvadaQAHH-k1Uph-2">
          <mxGeometry x="45" y="248" width="10" height="46" as="geometry" />
        </mxCell>
        <mxCell id="6kVD8WvadaQAHH-k1Uph-3" value=":Api" style="shape=umlLifeline;perimeter=lifelinePerimeter;whiteSpace=wrap;html=1;container=1;dropTarget=0;collapsible=0;recursiveResize=0;outlineConnect=0;portConstraint=eastwest;newEdgeStyle={&quot;curved&quot;:0,&quot;rounded&quot;:0};" vertex="1" parent="1">
          <mxGeometry x="389" y="80" width="100" height="580" as="geometry" />
        </mxCell>
        <mxCell id="6kVD8WvadaQAHH-k1Uph-4" value=":Server" style="shape=umlLifeline;perimeter=lifelinePerimeter;whiteSpace=wrap;html=1;container=1;dropTarget=0;collapsible=0;recursiveResize=0;outlineConnect=0;portConstraint=eastwest;newEdgeStyle={&quot;curved&quot;:0,&quot;rounded&quot;:0};" vertex="1" parent="1">
          <mxGeometry x="554" y="80" width="100" height="630" as="geometry" />
        </mxCell>
        <mxCell id="6kVD8WvadaQAHH-k1Uph-7" value="Nhấn nút tạo phòng" style="html=1;verticalAlign=bottom;endArrow=block;curved=0;rounded=0;" edge="1" parent="1" target="6kVD8WvadaQAHH-k1Uph-2">
          <mxGeometry x="0.1613" y="4" width="80" relative="1" as="geometry">
            <mxPoint x="129" y="174" as="sourcePoint" />
            <mxPoint x="209" y="174" as="targetPoint" />
            <mxPoint as="offset" />
          </mxGeometry>
        </mxCell>
        <mxCell id="6kVD8WvadaQAHH-k1Uph-8" value="loop kiểm tra form phòng" style="shape=umlFrame;whiteSpace=wrap;html=1;pointerEvents=0;width=100;height=30;" vertex="1" parent="1">
          <mxGeometry x="160" y="200" width="230" height="110" as="geometry" />
        </mxCell>
        <mxCell id="6kVD8WvadaQAHH-k1Uph-11" value="" style="html=1;points=[[0,0,0,0,5],[0,1,0,0,-5],[1,0,0,0,5],[1,1,0,0,-5]];perimeter=orthogonalPerimeter;outlineConnect=0;targetShapes=umlLifeline;portConstraint=eastwest;newEdgeStyle={&quot;curved&quot;:0,&quot;rounded&quot;:0};" vertex="1" parent="1">
          <mxGeometry x="275" y="270" width="10" height="30" as="geometry" />
        </mxCell>
        <mxCell id="6kVD8WvadaQAHH-k1Uph-12" value="kiểm tra hợp lệ" style="html=1;align=left;spacingLeft=2;endArrow=block;rounded=0;edgeStyle=orthogonalEdgeStyle;curved=0;rounded=0;" edge="1" parent="1">
          <mxGeometry x="0.0118" relative="1" as="geometry">
            <mxPoint x="279" y="241" as="sourcePoint" />
            <Array as="points">
              <mxPoint x="309" y="271" />
            </Array>
            <mxPoint x="284" y="271" as="targetPoint" />
            <mxPoint as="offset" />
          </mxGeometry>
        </mxCell>
        <mxCell id="6kVD8WvadaQAHH-k1Uph-13" value="gọi api tạo phòng&amp;nbsp;" style="html=1;verticalAlign=bottom;endArrow=block;curved=0;rounded=0;" edge="1" parent="1">
          <mxGeometry width="80" relative="1" as="geometry">
            <mxPoint x="272.5" y="350" as="sourcePoint" />
            <mxPoint x="434" y="350" as="targetPoint" />
          </mxGeometry>
        </mxCell>
        <mxCell id="6kVD8WvadaQAHH-k1Uph-15" value="gửi yêu cầu" style="html=1;verticalAlign=bottom;endArrow=block;curved=0;rounded=0;" edge="1" parent="1">
          <mxGeometry width="80" relative="1" as="geometry">
            <mxPoint x="440" y="368" as="sourcePoint" />
            <mxPoint x="601.5" y="368" as="targetPoint" />
          </mxGeometry>
        </mxCell>
        <mxCell id="6kVD8WvadaQAHH-k1Uph-17" value="trả về kết quả&amp;nbsp;" style="html=1;verticalAlign=bottom;endArrow=open;dashed=1;endSize=8;curved=0;rounded=0;" edge="1" parent="1">
          <mxGeometry relative="1" as="geometry">
            <mxPoint x="601.5" y="435" as="sourcePoint" />
            <mxPoint x="440" y="435" as="targetPoint" />
          </mxGeometry>
        </mxCell>
        <mxCell id="6kVD8WvadaQAHH-k1Uph-20" value="alt kết quả thêm phòng" style="shape=umlFrame;whiteSpace=wrap;html=1;pointerEvents=0;width=130;height=20;" vertex="1" parent="1">
          <mxGeometry x="150" y="470" width="320" height="200" as="geometry" />
        </mxCell>
        <mxCell id="6kVD8WvadaQAHH-k1Uph-21" value="Hiển thị ra màn hình chính" style="html=1;verticalAlign=bottom;endArrow=open;dashed=1;endSize=8;curved=0;rounded=0;" edge="1" parent="1">
          <mxGeometry relative="1" as="geometry">
            <mxPoint x="443" y="520" as="sourcePoint" />
            <mxPoint x="272" y="520" as="targetPoint" />
            <Array as="points" />
          </mxGeometry>
        </mxCell>
        <mxCell id="6kVD8WvadaQAHH-k1Uph-22" value="Hiển thiji ra màn hình thất bại" style="html=1;verticalAlign=bottom;endArrow=open;dashed=1;endSize=8;curved=0;rounded=0;" edge="1" parent="1">
          <mxGeometry relative="1" as="geometry">
            <mxPoint x="441" y="600" as="sourcePoint" />
            <mxPoint x="270" y="600" as="targetPoint" />
            <Array as="points" />
          </mxGeometry>
        </mxCell>
        <mxCell id="6kVD8WvadaQAHH-k1Uph-23" value="Thêm phòng thành&amp;nbsp;&lt;div&gt;công&lt;/div&gt;" style="text;html=1;align=center;verticalAlign=middle;resizable=0;points=[];autosize=1;strokeColor=none;fillColor=none;" vertex="1" parent="1">
          <mxGeometry x="145" y="503" width="130" height="40" as="geometry" />
        </mxCell>
        <mxCell id="6kVD8WvadaQAHH-k1Uph-24" value="&amp;nbsp; &amp;nbsp; &amp;nbsp; &amp;nbsp; &amp;nbsp; &amp;nbsp; &amp;nbsp; &amp;nbsp; &amp;nbsp; &amp;nbsp; &amp;nbsp; &amp;nbsp; &amp;nbsp; Thêm phòng thất bại" style="text;html=1;align=center;verticalAlign=middle;resizable=0;points=[];autosize=1;strokeColor=none;fillColor=none;" vertex="1" parent="1">
          <mxGeometry x="55" y="578" width="220" height="30" as="geometry" />
        </mxCell>
        <mxCell id="6kVD8WvadaQAHH-k1Uph-26" value=":Database" style="shape=umlLifeline;perimeter=lifelinePerimeter;whiteSpace=wrap;html=1;container=1;dropTarget=0;collapsible=0;recursiveResize=0;outlineConnect=0;portConstraint=eastwest;newEdgeStyle={&quot;curved&quot;:0,&quot;rounded&quot;:0};" vertex="1" parent="1">
          <mxGeometry x="700" y="80" width="96" height="630" as="geometry" />
        </mxCell>
        <mxCell id="6kVD8WvadaQAHH-k1Uph-34" value="cập nhật&lt;div&gt;dữ liệu&lt;/div&gt;" style="html=1;align=left;spacingLeft=2;endArrow=block;rounded=0;edgeStyle=orthogonalEdgeStyle;curved=0;rounded=0;" edge="1" parent="6kVD8WvadaQAHH-k1Uph-26">
          <mxGeometry relative="1" as="geometry">
            <mxPoint x="56.00000000000003" y="300" as="sourcePoint" />
            <Array as="points">
              <mxPoint x="70" y="300" />
              <mxPoint x="70" y="330" />
            </Array>
            <mxPoint x="61" y="330.0000000000001" as="targetPoint" />
          </mxGeometry>
        </mxCell>
        <mxCell id="6kVD8WvadaQAHH-k1Uph-27" value="gửi yêu cầu&amp;nbsp;" style="html=1;verticalAlign=bottom;endArrow=block;curved=0;rounded=0;" edge="1" parent="1">
          <mxGeometry width="80" relative="1" as="geometry">
            <mxPoint x="603" y="387" as="sourcePoint" />
            <mxPoint x="747.5" y="386.52" as="targetPoint" />
          </mxGeometry>
        </mxCell>
        <mxCell id="6kVD8WvadaQAHH-k1Uph-29" value="" style="html=1;points=[[0,0,0,0,5],[0,1,0,0,-5],[1,0,0,0,5],[1,1,0,0,-5]];perimeter=orthogonalPerimeter;outlineConnect=0;targetShapes=umlLifeline;portConstraint=eastwest;newEdgeStyle={&quot;curved&quot;:0,&quot;rounded&quot;:0};" vertex="1" parent="1">
          <mxGeometry x="746" y="374" width="10" height="46" as="geometry" />
        </mxCell>
        <mxCell id="6kVD8WvadaQAHH-k1Uph-30" value="trả về kết quả" style="html=1;verticalAlign=bottom;endArrow=open;dashed=1;endSize=8;curved=0;rounded=0;" edge="1" parent="1">
          <mxGeometry relative="1" as="geometry">
            <mxPoint x="747.5" y="413" as="sourcePoint" />
            <mxPoint x="604" y="413" as="targetPoint" />
          </mxGeometry>
        </mxCell>
        <mxCell id="6kVD8WvadaQAHH-k1Uph-35" value="Biểu đồ tuàn tự tự thêm phòng&lt;div&gt;&lt;br&gt;&lt;/div&gt;" style="shape=umlFrame;whiteSpace=wrap;html=1;pointerEvents=0;width=210;height=30;" vertex="1" parent="1">
          <mxGeometry x="60" y="20" width="770" height="712" as="geometry" />
        </mxCell>
        <mxCell id="6kVD8WvadaQAHH-k1Uph-39" value="" style="html=1;points=[[0,0,0,0,5],[0,1,0,0,-5],[1,0,0,0,5],[1,1,0,0,-5]];perimeter=orthogonalPerimeter;outlineConnect=0;targetShapes=umlLifeline;portConstraint=eastwest;newEdgeStyle={&quot;curved&quot;:0,&quot;rounded&quot;:0};" vertex="1" parent="1">
          <mxGeometry x="434" y="360" width="10" height="30" as="geometry" />
        </mxCell>
        <mxCell id="6kVD8WvadaQAHH-k1Uph-40" value="" style="html=1;points=[[0,0,0,0,5],[0,1,0,0,-5],[1,0,0,0,5],[1,1,0,0,-5]];perimeter=orthogonalPerimeter;outlineConnect=0;targetShapes=umlLifeline;portConstraint=eastwest;newEdgeStyle={&quot;curved&quot;:0,&quot;rounded&quot;:0};" vertex="1" parent="1">
          <mxGeometry x="599" y="373" width="10" height="18" as="geometry" />
        </mxCell>
        <mxCell id="6kVD8WvadaQAHH-k1Uph-41" value="" style="html=1;points=[[0,0,0,0,5],[0,1,0,0,-5],[1,0,0,0,5],[1,1,0,0,-5]];perimeter=orthogonalPerimeter;outlineConnect=0;targetShapes=umlLifeline;portConstraint=eastwest;newEdgeStyle={&quot;curved&quot;:0,&quot;rounded&quot;:0};" vertex="1" parent="1">
          <mxGeometry x="599" y="401" width="10" height="20" as="geometry" />
        </mxCell>
        <mxCell id="6kVD8WvadaQAHH-k1Uph-42" value="" style="html=1;points=[[0,0,0,0,5],[0,1,0,0,-5],[1,0,0,0,5],[1,1,0,0,-5]];perimeter=orthogonalPerimeter;outlineConnect=0;targetShapes=umlLifeline;portConstraint=eastwest;newEdgeStyle={&quot;curved&quot;:0,&quot;rounded&quot;:0};" vertex="1" parent="1">
          <mxGeometry x="435" y="421" width="10" height="30" as="geometry" />
        </mxCell>
        <mxCell id="6kVD8WvadaQAHH-k1Uph-43" value="" style="html=1;points=[[0,0,0,0,5],[0,1,0,0,-5],[1,0,0,0,5],[1,1,0,0,-5]];perimeter=orthogonalPerimeter;outlineConnect=0;targetShapes=umlLifeline;portConstraint=eastwest;newEdgeStyle={&quot;curved&quot;:0,&quot;rounded&quot;:0};" vertex="1" parent="1">
          <mxGeometry x="265" y="500" width="10" height="46" as="geometry" />
        </mxCell>
        <mxCell id="6kVD8WvadaQAHH-k1Uph-44" value="" style="html=1;points=[[0,0,0,0,5],[0,1,0,0,-5],[1,0,0,0,5],[1,1,0,0,-5]];perimeter=orthogonalPerimeter;outlineConnect=0;targetShapes=umlLifeline;portConstraint=eastwest;newEdgeStyle={&quot;curved&quot;:0,&quot;rounded&quot;:0};" vertex="1" parent="1">
          <mxGeometry x="265" y="585" width="10" height="46" as="geometry" />
        </mxCell>
      </root>
    </mxGraphModel>
  </diagram>
</mxfile>
